<svg width="52" height="335" fill="none" xmlns="http://www.w3.org/2000/svg"><mask id="path-1-outside-1_1_7863" maskUnits="userSpaceOnUse" x="-1.033" y="-.867" width="53.786" height="336.412" fill="#000"><path fill="#fff" d="M-1.033-.867h53.786v336.412H-1.033z"/><path d="m50.628 320.048.113 13.635L4.07 318.707l-.144-17.273 46.417-15.749.113 13.636-33.642 10.461.003.364 33.81 9.902Zm-18.342 2.697-.213-25.635 9.455-.079.212 25.636-9.454.078Zm18.02-41.543-46.544.386-.168-20.181c-.029-3.545.424-6.526 1.358-8.943.934-2.432 2.268-4.269 4-5.511 1.732-1.257 3.78-1.895 6.143-1.914 1.712-.015 3.276.351 4.691 1.097 1.416.731 2.606 1.766 3.572 3.107.95 1.341 1.615 2.911 1.994 4.711l.454-.004c.06-2 .552-3.823 1.477-5.467a10.455 10.455 0 0 1 3.809-3.941c1.613-.983 3.518-1.483 5.715-1.502 2.545-.021 4.816.627 6.812 1.944 1.995 1.302 3.571 3.167 4.728 5.597 1.157 2.43 1.749 5.334 1.777 8.713l.182 21.908ZM40.11 268.65l-.049-5.909c-.017-2.121-.425-3.708-1.221-4.763-.812-1.053-1.998-1.574-3.559-1.561-1.09.009-2.013.267-2.766.773-.753.506-1.323 1.223-1.71 2.151-.386.912-.574 2.012-.563 3.3l.05 6.091 9.818-.082Zm-17.636.146-.043-5.181c-.009-1.106-.191-2.082-.547-2.928-.355-.845-.86-1.5-1.516-1.964-.67-.48-1.483-.715-2.438-.707-1.439.012-2.533.536-3.282 1.572-.764 1.037-1.14 2.343-1.127 3.919l.045 5.363 8.908-.074Zm3.831-75.238c5.182-.043 9.561.928 13.138 2.913 3.562 1.986 6.274 4.683 8.136 8.092 1.846 3.409 2.787 7.22 2.822 11.432.035 4.242-.85 8.083-2.655 11.522-1.82 3.424-4.494 6.159-8.023 8.203-3.544 2.03-7.891 3.066-13.042 3.109-5.182.043-9.554-.921-13.116-2.892-3.577-1.985-6.289-4.675-8.135-8.069-1.862-3.409-2.81-7.234-2.845-11.477-.035-4.212.85-8.037 2.654-11.476 1.79-3.44 4.457-6.182 8-8.226 3.53-2.045 7.884-3.088 13.066-3.131Zm.108 12.999c-2.788.023-5.133.414-7.036 1.172-1.918.743-3.364 1.839-4.337 3.286-.988 1.433-1.473 3.194-1.456 5.285.018 2.091.532 3.852 1.544 5.283.997 1.416 2.46 2.487 4.39 3.214 1.915.711 4.267 1.055 7.055 1.032 2.787-.023 5.14-.406 7.059-1.149 1.903-.759 3.348-1.854 4.336-3.286.973-1.448 1.45-3.217 1.433-5.308-.017-2.091-.524-3.844-1.52-5.26-1.013-1.431-2.476-2.503-4.391-3.214-1.93-.726-4.29-1.078-7.077-1.055ZM2.756 160.36l-.105-12.636 29.817-.248c3.546-.029 6.62.794 9.226 2.469 2.59 1.661 4.601 3.993 6.035 6.996 1.42 3.004 2.145 6.498 2.178 10.482.034 4.015-.634 7.536-2.003 10.563-1.384 3.026-3.357 5.391-5.919 7.095-2.577 1.688-5.638 2.546-9.183 2.576l-29.817.247-.105-12.636 28.726-.238c1.44-.012 2.724-.341 3.856-.987a6.878 6.878 0 0 0 2.614-2.658c.627-1.141.934-2.432.922-3.871-.012-1.455-.34-2.74-.986-3.856a6.884 6.884 0 0 0-2.658-2.614c-1.142-.627-2.432-.935-3.872-.923l-28.726.239Zm10.037-17.453-10.181.084-.336-40.453 10.182-.085.116 14 36.362-.302.104 12.454-36.363.302.116 14ZM1.903 57.488l-.105-12.636 29.817-.247c3.545-.03 6.62.794 9.225 2.469 2.59 1.66 4.602 3.992 6.036 6.996 1.419 3.003 2.145 6.497 2.178 10.482.033 4.015-.635 7.536-2.004 10.562-1.384 3.027-3.357 5.392-5.918 7.095-2.577 1.688-5.638 2.547-9.184 2.576l-29.817.248-.105-12.636 28.727-.239c1.439-.011 2.724-.34 3.855-.986a6.886 6.886 0 0 0 2.614-2.658c.627-1.142.935-2.432.923-3.872-.012-1.454-.341-2.74-.987-3.855a6.886 6.886 0 0 0-2.658-2.615c-1.141-.627-2.432-.934-3.871-.922l-28.726.238Zm14.182-43.852c-1.514.134-2.692.712-3.532 1.734-.84 1.007-1.251 2.533-1.234 4.579.01 1.303.178 2.37.503 3.2.31.816.732 1.418 1.266 1.808.533.39 1.14.589 1.823.598a2.987 2.987 0 0 0 1.52-.308c.437-.246.836-.628 1.195-1.146.344-.518.657-1.18.938-1.985.281-.805.531-1.762.75-2.87l.786-3.825c.524-2.58 1.225-4.79 2.104-6.631.878-1.84 1.919-3.35 3.121-4.526 1.188-1.177 2.529-2.044 4.024-2.602 1.496-.573 3.13-.874 4.902-.904 3.06-.01 5.658.733 7.792 2.23 2.133 1.498 3.765 3.651 4.894 6.46 1.13 2.794 1.71 6.16 1.743 10.1.034 4.045-.535 7.58-1.707 10.605-1.172 3.01-2.994 5.358-5.465 7.046-2.486 1.672-5.676 2.532-9.57 2.58l-.1-12c1.425-.088 2.618-.454 3.583-1.098.964-.645 1.692-1.545 2.182-2.7.49-1.171.729-2.56.715-4.166-.01-1.348-.187-2.475-.527-3.382-.341-.906-.81-1.591-1.404-2.056a3.272 3.272 0 0 0-2.029-.71 2.873 2.873 0 0 0-1.857.72c-.542.443-1.021 1.175-1.437 2.193-.43 1.019-.829 2.394-1.193 4.124l-.961 4.644c-.86 4.129-2.326 7.391-4.397 9.787-2.086 2.381-4.947 3.58-8.584 3.594-2.954.04-5.544-.727-7.77-2.3-2.24-1.587-3.993-3.792-5.259-6.615-1.266-2.838-1.914-6.098-1.945-9.78-.03-3.757.571-7.012 1.806-9.765 1.235-2.752 2.99-4.88 5.265-6.385 2.26-1.518 4.913-2.298 7.958-2.338l.1 12.09Z"/></mask><path d="m50.628 320.048 1-.009-.006-.742-.713-.209-.281.96Zm.113 13.635-.306.953 1.317.422-.011-1.383-1 .008ZM4.07 318.707l-1 .008.006.723.688.221.306-.952Zm-.144-17.273-.32-.947-.686.233.006.723 1-.009Zm46.417-15.749 1-.008-.012-1.383-1.31.444.322.947Zm.113 13.636.297.955.71-.221-.007-.742-1 .008Zm-33.642 10.461-.297-.955-.709.221.006.743 1-.009Zm.003.364-1 .008.007.743.712.209.281-.96Zm15.47 12.599-1 .009.007 1 1-.009-.008-1Zm-.214-25.635-.008-1-1 .008.008 1 1-.008Zm9.455-.079 1-.008-.009-1-1 .008.009 1Zm.212 25.636.009 1 1-.008-.009-1-1 .008Zm7.888-2.611.113 13.636 2-.017-.113-13.636-2 .017Zm1.419 12.675L4.375 317.754l-.61 1.905 46.67 14.977.612-1.905ZM5.07 318.698l-.144-17.272-2 .017.144 17.272 2-.017Zm-.822-16.317 46.416-15.749-.642-1.894-46.417 15.749.643 1.894Zm45.095-16.688.113 13.636 2-.016-.113-13.636-2 .016Zm.816 12.673-33.642 10.461.594 1.91 33.642-10.461-.594-1.91Zm-34.345 11.425.003.363 2-.016-.003-.364-2 .017Zm.722 1.315 33.81 9.901.563-1.919-33.81-9.902-.563 1.92Zm16.75 11.631-.213-25.635-2 .016.213 25.636 2-.017Zm-1.204-24.627 9.454-.079-.017-2-9.454.079.017 2Zm8.446-1.07.212 25.635 2-.016-.212-25.636-2 .017Zm1.204 24.627-9.454.078.016 2 9.455-.078-.017-2Zm8.574-40.465.008 1 1-.008-.008-1-1 .008Zm-46.544.386-1 .009.008 1 1-.009-.008-1Zm1.19-29.124.933.361v-.002l-.933-.359Zm4-5.511.583.813.004-.003-.587-.81Zm10.834-.817-.466.885.008.004.458-.889Zm3.572 3.107.816-.578-.005-.007-.811.585Zm1.994 4.711-.98.206.17.801.818-.007-.008-1Zm.454-.004.008 1 .963-.008.029-.962-1-.03Zm1.477-5.467.872.491.003-.006-.875-.485Zm3.809-3.941.517.856.003-.002-.52-.854Zm12.527.442-.551.835.004.002.547-.837Zm4.728 5.597-.903.43.903-.43ZM40.11 268.65l.009 1 1-.008-.009-1-1 .008Zm-1.27-10.672.798-.602-.006-.008-.792.61Zm-8.035 1.363.921.39.003-.006-.924-.384Zm-.513 9.391-1 .008.009 1 1-.008-.009-1Zm-7.818.064.009 1 1-.008-.009-1-1 .008Zm-.59-8.109.922-.387-.922.387Zm-1.516-1.964-.581.813.003.003.578-.816Zm-5.72.865.805.594.005-.008-.81-.586Zm-1.082 9.282-1 .009.008 1 1-.009-.008-1Zm36.731 11.332-46.543.387.016 1.999 46.544-.386-.017-2ZM4.762 281.58l-.168-20.181-2 .017.168 20.181 2-.017Zm-.168-20.181c-.028-3.463.415-6.31 1.29-8.574l-1.865-.722c-.993 2.57-1.455 5.685-1.425 9.313l2-.017Zm1.292-8.576c.88-2.291 2.107-3.952 3.649-5.057l-1.166-1.625c-1.923 1.378-3.362 3.391-4.35 5.964l1.867.718Zm3.653-5.06c1.546-1.122 3.386-1.706 5.565-1.724l-.017-2c-2.549.021-4.804.713-6.722 2.105l1.174 1.619Zm5.565-1.724c1.558-.013 2.957.318 4.216.982l.933-1.77c-1.572-.828-3.3-1.228-5.166-1.212l.017 2Zm4.224.986c1.27.655 2.341 1.585 3.218 2.803l1.623-1.17c-1.054-1.463-2.364-2.605-3.924-3.41l-.917 1.777Zm3.214 2.796c.862 1.217 1.477 2.657 1.83 4.339l1.958-.412c-.403-1.918-1.118-3.618-2.156-5.083l-1.632 1.156Zm2.818 5.133.454-.004-.016-2-.455.004.017 2Zm1.446-.974c.054-1.849.507-3.512 1.349-5.006l-1.743-.982c-1.01 1.794-1.542 3.776-1.606 5.929l2 .059Zm1.352-5.012a9.45 9.45 0 0 1 3.45-3.57l-1.033-1.712a11.453 11.453 0 0 0-4.166 4.313l1.75.969Zm3.454-3.572c1.435-.874 3.157-1.339 5.203-1.356l-.017-2c-2.347.02-4.436.557-6.227 1.648l1.041 1.708Zm5.203-1.356c2.36-.019 4.434.578 6.253 1.779l1.101-1.67c-2.172-1.433-4.64-2.131-7.37-2.109l.016 2Zm6.257 1.781c1.823 1.189 3.284 2.904 4.372 5.19l1.806-.86c-1.225-2.574-2.916-4.59-5.085-6.005l-1.093 1.675Zm4.372 5.19c1.08 2.269 1.653 5.022 1.68 8.291l2-.016c-.03-3.489-.64-6.544-1.874-9.135l-1.806.86Zm1.68 8.291.182 21.909 2-.017-.182-21.908-2 .016Zm-8.014 9.34-.049-5.909-2 .017.05 5.908 2-.016Zm-.049-5.909c-.018-2.216-.44-4.056-1.423-5.357l-1.596 1.205c.61.807 1.002 2.142 1.02 4.169l2-.017Zm-1.429-5.365c-1.037-1.347-2.546-1.966-4.359-1.951l.017 2c1.308-.011 2.172.411 2.758 1.172l1.584-1.221Zm-4.359-1.951c-1.247.01-2.37.307-3.316.943l1.116 1.66c.56-.377 1.282-.595 2.217-.603l-.017-2Zm-3.316.943c-.933.627-1.621 1.508-2.075 2.596l1.847.769c.319-.766.77-1.32 1.344-1.705l-1.116-1.66Zm-2.072 2.591c-.454 1.07-.655 2.313-.643 3.698l2-.016c-.01-1.191.165-2.148.484-2.902l-1.841-.78Zm-.643 3.698.05 6.091 2-.017-.05-6.09-2 .016Zm1.059 7.083 9.818-.082-.017-2-9.818.082.017 2Zm-6.826-.944-.044-5.181-2 .016.043 5.182 2-.017Zm-.044-5.181c-.01-1.211-.21-2.319-.625-3.307l-1.843.775c.295.703.46 1.546.468 2.548l2-.016Zm-.625-3.307c-.417-.993-1.031-1.806-1.86-2.393l-1.156 1.632c.482.341.879.838 1.173 1.536l1.843-.775Zm-1.856-2.391c-.87-.621-1.897-.903-3.028-.893l.017 2c.777-.007 1.375.183 1.848.52l1.163-1.627Zm-3.028-.893c-1.711.014-3.124.657-4.085 1.987l1.621 1.171c.538-.744 1.313-1.149 2.48-1.158l-.016-2Zm-4.08 1.979c-.918 1.247-1.335 2.778-1.32 4.52l2-.016c-.013-1.409.322-2.491.93-3.317l-1.61-1.187Zm-1.32 4.52.044 5.364 2-.017-.045-5.363-2 .016Zm1.052 6.355 8.909-.074-.017-2-8.909.074.017 2Zm25.87-73.399.486-.873-.002-.001-.485.874Zm8.135 8.092.88-.476-.003-.003-.877.479Zm.167 22.954.884.47.002-.005-.886-.465Zm-8.023 8.203.497.868.005-.002-.502-.866Zm-26.158.217-.485.875h.001l.484-.875Zm-8.135-8.069.878-.478v-.001l-.878.479Zm-.19-22.953.885.464.001-.003-.887-.461Zm8-8.226.5.866v-.001l-.5-.865Zm6.137 11.04.361.933.009-.004-.37-.929Zm-4.337 3.286.824.568.006-.01-.83-.558Zm.088 10.568.818-.576-.002-.001-.816.577Zm4.39 3.214-.352.936.004.001.348-.937Zm14.114-.117.36.932.01-.003-.37-.929Zm4.336-3.286.823.567.007-.01-.83-.557Zm-.088-10.568.818-.576-.001-.002-.817.578Zm-4.39-3.214-.352.936.004.001.348-.937Zm-7.177-13.055c5.055-.041 9.254.906 12.645 2.789l.97-1.749c-3.763-2.089-8.322-3.083-13.631-3.039l.016 1.999Zm12.643 2.788c3.406 1.898 5.979 4.463 7.745 7.698l1.755-.959c-1.956-3.583-4.808-6.413-8.526-8.486l-.974 1.747Zm7.743 7.695c1.763 3.253 2.668 6.9 2.702 10.963l2-.017c-.036-4.361-1.012-8.334-2.943-11.899l-1.758.953Zm2.702 10.963c.034 4.093-.819 7.769-2.54 11.05l1.771.929c1.888-3.598 2.805-7.604 2.769-11.996l-2 .017Zm-2.538 11.045c-1.727 3.25-4.265 5.851-7.64 7.807l1.002 1.731c3.681-2.133 6.492-5.001 8.405-8.599l-1.767-.939Zm-7.636 7.805c-3.361 1.924-7.53 2.934-12.555 2.976l.017 2c5.279-.044 9.805-1.107 13.531-3.241l-.993-1.735Zm-12.555 2.976c-5.055.042-9.247-.899-12.623-2.767l-.968 1.75c3.748 2.074 8.3 3.061 13.608 3.017l-.017-2Zm-12.622-2.766c-3.42-1.899-5.992-4.456-7.742-7.673l-1.757.956c1.943 3.571 4.796 6.394 8.529 8.466l.97-1.749Zm-7.743-7.674c-1.775-3.251-2.689-6.913-2.723-11.006l-2 .017c.037 4.391 1.02 8.381 2.968 11.948l1.755-.959Zm-2.723-11.006c-.033-4.061.819-7.722 2.54-11.004l-1.77-.929c-1.888 3.597-2.806 7.587-2.77 11.95l2-.017Zm2.542-11.007c1.697-3.261 4.225-5.866 7.613-7.821l-1-1.732c-3.698 2.134-6.504 5.012-8.387 8.63l1.774.923Zm7.615-7.822c3.343-1.937 7.518-2.955 12.572-2.997l-.016-1.999c-5.31.044-9.845 1.114-13.559 3.266l1.003 1.73Zm12.663 8.003c-2.87.024-5.346.426-7.397 1.243l.74 1.858c1.754-.699 3.968-1.079 6.674-1.101l-.017-2Zm-7.388 1.24c-2.074.803-3.7 2.014-4.806 3.66l1.66 1.116c.84-1.249 2.106-2.229 3.868-2.911l-.722-1.865Zm-4.799 3.65c-1.127 1.634-1.652 3.607-1.633 5.862l2-.017c-.016-1.928.43-3.478 1.28-4.709l-1.647-1.136Zm-1.633 5.862c.019 2.254.577 4.224 1.728 5.851l1.633-1.154c-.873-1.235-1.345-2.787-1.36-4.714l-2 .017Zm1.726 5.85c1.133 1.609 2.775 2.79 4.856 3.574l.705-1.872c-1.78-.67-3.065-1.631-3.925-2.854l-1.636 1.152Zm4.86 3.575c2.063.766 4.543 1.119 7.411 1.095l-.017-2c-2.707.023-4.93-.313-6.697-.97l-.697 1.875Zm7.411 1.095c2.868-.024 5.349-.418 7.412-1.217l-.723-1.865c-1.773.687-3.998 1.06-6.706 1.082l.017 2Zm7.42-1.22c2.054-.818 3.671-2.026 4.79-3.648l-1.646-1.135c-.857 1.243-2.13 2.226-3.884 2.925l.74 1.858Zm4.797-3.658c1.106-1.645 1.622-3.622 1.603-5.873l-2 .016c.016 1.93-.423 3.492-1.263 4.742l1.66 1.115Zm1.603-5.873c-.018-2.251-.567-4.214-1.703-5.828l-1.635 1.151c.857 1.218 1.322 2.763 1.338 4.693l2-.016Zm-1.704-5.83c-1.147-1.621-2.787-2.804-4.859-3.573l-.696 1.874c1.758.654 3.045 1.613 3.922 2.854l1.633-1.155Zm-4.855-3.572c-2.078-.782-4.567-1.143-7.438-1.119l.017 2c2.705-.022 4.934.32 6.717.991l.704-1.872ZM2.756 160.36l-1 .008.008 1 1-.008-.008-1Zm-.105-12.636-.008-1-1 .008.008 1 1-.008Zm39.043 2.221-.541.841v.001l.54-.842Zm6.035 6.996.904-.427-.001-.004-.903.431Zm.175 21.045.91.416v-.004l-.91-.412Zm-5.919 7.095.548.836.006-.004-.554-.832Zm-39 2.823-1 .009.008.999 1-.008-.008-1Zm-.105-12.636-.009-1-1 .009.009 1 1-.009Zm32.582-1.225.495.869.005-.003-.5-.866Zm2.614-2.658.874.487.002-.005-.876-.482Zm-.064-7.727.865-.501-.865.501Zm-2.658-2.614.486-.874-.005-.003-.481.877Zm-31.598-.693-.105-12.636-2 .017.105 12.636 2-.017Zm-1.097-11.627 29.818-.248-.017-2-29.817.248.016 2Zm29.818-.248c3.38-.028 6.257.755 8.676 2.31l1.082-1.682c-2.792-1.795-6.064-2.658-9.775-2.628l.017 2Zm8.677 2.311c2.42 1.552 4.312 3.735 5.673 6.585l1.805-.862c-1.508-3.157-3.64-5.637-6.399-7.406l-1.08 1.683Zm5.671 6.581c1.346 2.849 2.05 6.195 2.082 10.064l2-.017c-.034-4.101-.782-7.743-2.274-10.901l-1.808.854Zm2.082 10.064c.033 3.899-.616 7.272-1.914 10.142l1.822.824c1.44-3.183 2.126-6.853 2.092-10.983l-2 .017Zm-1.913 10.138c-1.313 2.872-3.169 5.086-5.563 6.678l1.108 1.665c2.73-1.814 4.82-4.33 6.274-7.511l-1.819-.832Zm-5.557 6.674c-2.393 1.568-5.26 2.385-8.644 2.413l.017 2c3.707-.031 6.963-.932 9.723-2.74l-1.096-1.673Zm-8.644 2.413-29.817.247.017 2 29.817-.247-.017-2Zm-28.808 1.239L3.88 175.26l-2 .017.105 12.636 2-.017Zm-1.097-11.628 28.726-.238-.016-2-28.727.238.017 2Zm28.726-.238c1.592-.013 3.049-.379 4.343-1.118l-.991-1.737c-.968.552-2.082.844-3.368.855l.016 2Zm4.348-1.121a7.886 7.886 0 0 0 2.988-3.037l-1.748-.973a5.883 5.883 0 0 1-2.241 2.279l1.001 1.731Zm2.99-3.042c.718-1.307 1.06-2.769 1.046-4.361l-2 .016c.011 1.287-.262 2.406-.798 3.382l1.752.963Zm1.046-4.361c-.013-1.605-.378-3.064-1.12-4.349l-1.732 1.002c.549.948.842 2.059.852 3.363l2-.016Zm-1.12-4.349a7.887 7.887 0 0 0-3.038-2.987l-.973 1.748a5.881 5.881 0 0 1 2.28 2.241l1.73-1.002Zm-3.043-2.99c-1.307-.717-2.769-1.059-4.361-1.046l.017 2c1.286-.01 2.405.263 3.381.799l.963-1.753Zm-4.361-1.046-28.726.239.016 2 28.727-.239-.017-2Zm-18.68-16.214.008.999 1-.008-.009-1-1 .009Zm-10.182.084-1 .008.008 1 1-.008-.008-1Zm-.336-40.453-.008-1-1 .008.008 1 1-.008Zm10.182-.085 1-.008-.009-1-1 .008.009 1Zm.116 14-1 .008.008 1 1-.008-.008-1Zm36.362-.302 1-.008-.008-1-1 .008.008 1Zm.104 12.454.008 1 1-.008-.008-1-1 .008Zm-36.363.302-.008-1-1 .008.008 1 1-.008Zm.108 13-10.181.084.016 2 10.182-.085-.017-1.999Zm-9.173 1.076-.336-40.453-2 .016.336 40.453 2-.016Zm-1.327-39.445 10.181-.085-.016-2-10.182.085.017 2Zm9.173-1.076.116 13.999 2-.016-.116-14-2 .017Zm1.124 14.991 36.363-.302-.017-2-36.362.302.016 2Zm35.354-1.294.104 12.455 2-.017-.104-12.454-2 .016Zm1.095 11.446-36.362.302.016 2 36.363-.302-.017-2Zm-37.354 1.31.116 14 2-.017-.116-13.999-2 .016ZM1.903 57.488l-1 .008.008 1 1-.008-.008-1Zm-.105-12.636-.009-1-1 .009.009 1 1-.009Zm39.042 2.222-.54.841.54-.841Zm6.036 6.996.904-.428-.002-.003-.902.43Zm.174 21.044.91.416.002-.004-.912-.412Zm-5.918 7.095.548.837.005-.004-.553-.833Zm-39 2.824-1 .008.007 1 1-.008-.008-1Zm-.106-12.636-.008-1-1 .008.008 1 1-.008Zm32.582-1.225.496.868.005-.003-.5-.865Zm2.614-2.658.874.486.003-.005-.877-.481Zm-.064-7.727.866-.501-.866.5ZM34.5 58.172l.487-.873-.005-.003-.482.876ZM2.903 57.48l-.105-12.636-2 .017.105 12.636 2-.017ZM1.806 45.852l29.817-.247-.016-2-29.818.247.017 2Zm29.817-.247c3.38-.028 6.258.755 8.676 2.31l1.082-1.682c-2.791-1.795-6.063-2.659-9.774-2.628l.016 2Zm8.677 2.31c2.42 1.552 4.313 3.736 5.673 6.585l1.805-.861C46.271 50.48 44.14 48 41.38 46.232l-1.08 1.684Zm5.672 6.582c1.345 2.849 2.05 6.195 2.082 10.063l2-.016c-.034-4.102-.782-7.743-2.274-10.902l-1.808.855Zm2.082 10.063c.032 3.9-.617 7.272-1.915 10.142l1.822.824c1.44-3.183 2.127-6.852 2.093-10.982l-2 .016ZM46.14 74.698c-1.313 2.872-3.169 5.087-5.563 6.678l1.107 1.666c2.73-1.815 4.82-4.33 6.275-7.512l-1.82-.832Zm-5.557 6.675c-2.394 1.567-5.26 2.384-8.644 2.412l.016 2c3.708-.03 6.963-.931 9.724-2.74l-1.096-1.672Zm-8.644 2.412-29.817.248.016 2 29.817-.248-.016-2ZM3.13 85.025l-.105-12.637-2 .017.105 12.636 2-.016ZM2.035 73.397l28.726-.239-.017-2-28.726.239.017 2Zm28.726-.239c1.592-.013 3.048-.378 4.343-1.118l-.992-1.737c-.967.553-2.081.845-3.368.856l.017 2Zm4.348-1.12A7.886 7.886 0 0 0 38.096 69l-1.747-.973a5.888 5.888 0 0 1-2.242 2.28l1.002 1.73Zm2.99-3.043c.718-1.307 1.06-2.769 1.046-4.36l-2 .016c.01 1.286-.263 2.405-.799 3.381l1.753.963Zm1.046-4.36c-.013-1.606-.378-3.065-1.121-4.349l-1.731 1.002c.548.947.841 2.059.852 3.363l2-.017Zm-1.121-4.349a7.887 7.887 0 0 0-3.037-2.987l-.973 1.747a5.887 5.887 0 0 1 2.279 2.242l1.731-1.002Zm-3.042-2.99c-1.307-.718-2.77-1.06-4.361-1.046l.016 2c1.287-.01 2.406.263 3.382.799l.963-1.753ZM30.62 56.25l-28.727.238.017 2 28.726-.238-.017-2ZM16.084 13.636l.088.996.92-.081-.008-.923-1 .008Zm-3.532 1.734.768.64.005-.005-.773-.635Zm-.73 7.78.934-.356-.003-.01-.931.365Zm1.265 1.807-.59.808.59-.808Zm1.823.598.046-.999h-.032l-.014 1Zm1.52-.308.455.891.018-.01.017-.01-.49-.87Zm1.195-1.146.822.57.005-.008.006-.009-.833-.553Zm1.687-4.855-.98-.201-.001.008.981.193Zm.787-3.825.98.202v-.003l-.98-.199Zm2.104-6.631.902.43-.902-.43Zm3.121-4.526.7.714.004-.004-.704-.71Zm4.024-2.602.35.937.008-.003-.358-.934Zm4.902-.904-.003-1h-.014l.017 1Zm7.792 2.23.574-.818-.574.819Zm4.894 6.46-.927.373v.002l.927-.375Zm.036 20.705.932.363v-.002l-.932-.36ZM41.508 37.2l.558.83.006-.004-.564-.826Zm-9.57 2.58-1 .007.009 1.004 1.004-.012-.012-1Zm-.1-12-.06-.998-.947.058.008.948 1-.008Zm3.583-1.098.555.831-.555-.831Zm2.182-2.7.92.39.002-.004-.922-.386Zm.188-7.548.935-.352-.935.352Zm-1.404-2.056.616-.788-.616.788Zm-2.029-.71.012-1h-.041l.03 1Zm-1.857.72.633.773.012-.01.012-.01-.657-.754Zm-1.437 2.193.921.39.005-.012-.926-.378Zm-1.193 4.124-.979-.206v.003l.98.203Zm-.961 4.644.979.204v-.001l-.98-.203Zm-4.397 9.787.752.66.005-.006-.757-.654ZM15.93 38.73l-.004-1h-.01l.014 1Zm-7.77-2.3-.577.817.578-.816ZM2.9 29.815l-.913.408v.001l.913-.409ZM2.76 10.27l.913.41-.912-.41Zm5.266-6.385.552.835.006-.005-.558-.83Zm7.958-2.338 1-.009-.008-1.005-1.005.014.013 1Zm.013 11.094c-1.739.154-3.18.834-4.216 2.095l1.545 1.27c.644-.783 1.557-1.259 2.847-1.373l-.176-1.992Zm-4.211 2.09c-1.057 1.266-1.485 3.07-1.467 5.227l2-.017c-.016-1.934.379-3.182 1.002-3.93l-1.535-1.28Zm-1.467 5.227c.011 1.374.187 2.573.572 3.556l1.863-.728c-.265-.678-.425-1.613-.435-2.845l-2 .017Zm.569 3.547c.357.94.877 1.725 1.61 2.26l1.18-1.615c-.335-.244-.658-.664-.92-1.355l-1.87.71Zm1.61 2.26a4.089 4.089 0 0 0 2.399.791l.028-2a2.091 2.091 0 0 1-1.248-.406l-1.18 1.616Zm2.367.79a3.984 3.984 0 0 0 2.02-.416l-.909-1.781a1.989 1.989 0 0 1-1.02.2l-.09 1.997Zm2.056-.435c.599-.337 1.103-.837 1.527-1.448l-1.644-1.14c-.294.425-.587.69-.863.845l.98 1.743Zm1.538-1.465c.404-.608.75-1.351 1.05-2.209l-1.889-.659c-.263.754-.542 1.333-.827 1.761l1.666 1.107Zm1.05-2.209c.3-.861.56-1.866.785-3.006l-1.962-.386c-.212 1.075-.45 1.984-.712 2.733l1.888.66Zm.784-2.998.786-3.824-1.959-.403-.786 3.824 1.959.403Zm.787-3.827c.512-2.522 1.191-4.65 2.026-6.4l-1.805-.861c-.922 1.932-1.645 4.225-2.181 6.863l1.96.398Zm2.026-6.4c.839-1.756 1.816-3.162 2.919-4.242L24.626 3.55c-1.302 1.274-2.406 2.885-3.325 4.81l1.805.862Zm2.923-4.246c1.092-1.082 2.314-1.87 3.67-2.375l-.7-1.874c-1.634.61-3.094 1.557-4.377 2.828l1.407 1.421Zm3.678-2.378c1.376-.527 2.893-.81 4.561-.838l-.034-2c-1.876.031-3.627.351-5.242.97l.715 1.868Zm4.547-.838c2.891-.01 5.278.69 7.214 2.05l1.15-1.638c-2.332-1.636-5.14-2.423-8.37-2.412l.007 2Zm7.214 2.05C43.42 5.175 44.94 7.161 46.01 9.82l1.855-.746c-1.19-2.959-2.931-5.28-5.248-6.905l-1.149 1.637Zm4.542 6.015c1.07 2.647 1.638 5.883 1.67 9.733l2-.017c-.033-4.028-.627-7.526-1.816-10.466l-1.854.75Zm1.67 9.733c.033 3.95-.523 7.354-1.64 10.236l1.865.722c1.227-3.168 1.81-6.833 1.775-10.975l-2 .017ZM46.04 29.79c-1.104 2.838-2.805 5.019-5.096 6.583l1.128 1.652c2.651-1.81 4.593-4.327 5.833-7.509l-1.864-.726Zm-5.09 6.579c-2.283 1.535-5.267 2.364-9.024 2.41l.025 2c4.03-.05 7.426-.941 10.115-2.75l-1.116-1.66Zm-8.012 3.4-.1-11.999-1.999.017.1 12 2-.017ZM31.9 28.778c1.56-.096 2.935-.502 4.076-1.265l-1.11-1.663c-.788.526-1.801.852-3.088.931l.122 1.997Zm4.076-1.265c1.14-.761 1.988-1.821 2.548-3.14l-1.842-.782c-.42.992-1.028 1.732-1.817 2.26l1.111 1.662Zm2.55-3.145c.554-1.324.807-2.853.792-4.56l-2 .017c.013 1.505-.211 2.753-.637 3.77l1.844.773Zm.792-4.56c-.011-1.423-.197-2.675-.592-3.726l-1.871.704c.286.763.453 1.765.464 3.039l2-.017Zm-.592-3.726c-.387-1.03-.948-1.886-1.723-2.492l-1.232 1.576c.415.324.79.838 1.084 1.62l1.871-.704Zm-1.723-2.492a4.271 4.271 0 0 0-2.633-.923l-.023 2c.539.007 1.003.17 1.424.499l1.232-1.576Zm-2.674-.922a3.872 3.872 0 0 0-2.486.966l1.315 1.507c.348-.304.744-.46 1.23-.474l-.06-2Zm-2.462.946c-.724.593-1.282 1.496-1.729 2.59l1.852.755c.385-.944.785-1.503 1.144-1.798l-1.267-1.547Zm-1.724 2.578c-.466 1.102-.88 2.546-1.25 4.307l1.957.412c.358-1.7.74-3.005 1.135-3.94l-1.842-.78Zm-1.251 4.31-.962 4.645 1.959.405.961-4.644-1.958-.406Zm-.961 4.643c-.837 4.016-2.245 7.105-4.174 9.337l1.513 1.308c2.213-2.56 3.735-5.995 4.619-10.237l-1.958-.408Zm-4.17 9.332c-1.868 2.132-4.439 3.24-7.836 3.253l.008 2c3.876-.016 7.028-1.305 9.332-3.935l-1.504-1.318Zm-7.845 3.253c-2.762.037-5.141-.676-7.179-2.116l-1.154 1.634c2.412 1.705 5.213 2.524 8.36 2.482l-.027-2Zm-7.178-2.115c-2.077-1.472-3.723-3.528-4.925-6.209l-1.825.818c1.33 2.965 3.19 5.32 5.594 7.023l1.156-1.632Zm-4.924-6.207c-1.201-2.692-1.829-5.811-1.859-9.38l-2 .016c.032 3.794.7 7.194 2.032 10.179l1.827-.815Zm-1.859-9.38c-.03-3.649.555-6.755 1.718-9.349L1.848 9.86C.542 12.772-.077 16.176-.045 20.043l2-.017Zm1.718-9.349C4.84 8.08 6.477 6.107 8.578 4.718L7.475 3.05c-2.45 1.62-4.323 3.903-5.627 6.81l1.825.819Zm4.911-5.964c2.08-1.397 4.539-2.13 7.414-2.168l-.027-2c-3.216.042-6.063.869-8.503 2.508l1.116 1.66Zm6.4-3.16.1 12.09 2-.016-.1-12.09-2 .016Z" fill="#05C2DF" fill-opacity=".03" mask="url('#path-1-outside-1_1_7863')"/></svg>